# xmcd
#
# Track frame offsets:
#	150
#	11630
#	25300
#	39202
#	50342
#	62387
#	76650
#	90660
#	104862
#	118502
#	129625
#	138620
#	152532
#	163607
#	181555
#
# Disc length: 2614 seconds
#
# Revision: 1
# Processed by: cddbd v1.4PL0 Copyright (c) Steve Scherf et al.
# Submitted via: audiograbber 1.80
#
DISCID=b30a340f
DTITLE=Ella Fitzgerald - A Tisket - A Tasket
DYEAR=1900
DGENRE=
TTITLE0=A Tisket - A Tasket
TTITLE1=We can't go on this way
TTITLE2=Basin Street Blues
TTITLE3=That old black magic
TTITLE4=Sing Song Swing
TTITLE5=Rock it for me
TTITLE6=My heart belongs to daddy
TTITLE7=Crying my heart out for you
TTITLE8=Under the spell of the blues
TTITLE9=When I get low I get high
TTITLE10=Lover come back to me
TTITLE11=Starlit hour
TTITLE12=Flying home
TTITLE13=Oh Johnny, oh Johnny
TTITLE14=Chew, chew, chew
EXTD=
EXTT0=
EXTT1=
EXTT2=
EXTT3=
EXTT4=
EXTT5=
EXTT6=
EXTT7=
EXTT8=
EXTT9=
EXTT10=
EXTT11=
EXTT12=
EXTT13=
EXTT14=
PLAYORDER=
